<svg width="45" height="45" viewBox="0 0 45 45" fill="none" xmlns="http://www.w3.org/2000/svg">
<path d="M44.5577 27.199L38.1542 17.3034C37.6566 16.5387 36.8182 16.078 35.906 16.078H33.0774C32.6628 16.078 32.414 16.5387 32.6443 16.8796L39.5547 27.5676C39.6468 27.7058 39.5455 27.8901 39.3796 27.8901H36.3483H33.879H31.5111C31.2254 27.8901 31.0043 28.1204 30.9859 28.3968C30.7187 32.8563 27.024 36.3944 22.4908 36.3944C17.9576 36.3944 14.2629 32.8563 13.9957 28.3968C13.9773 28.1112 13.7561 27.8901 13.4705 27.8901H11.1026H8.98341H5.61118C5.44533 27.8901 5.35319 27.7058 5.43612 27.5676L12.3464 16.8796C12.5676 16.5295 12.3188 16.078 11.9134 16.078H9.08477C8.1726 16.078 7.33415 16.5387 6.83661 17.3034L0.44226 27.199C0.156634 27.6413 0 28.1665 0 28.7009V42.4847C0 43.8299 1.09644 44.9263 2.44165 44.9263H22.5H42.5584C43.9036 44.9263 45 43.8299 45 42.4847V28.7009C45 28.1665 44.8526 27.6505 44.5577 27.199Z" fill="#1E7BB9"/>
<path d="M23.2371 0.433052C22.8593 -0.0460637 22.1314 -0.0460637 21.7537 0.433052L15.6818 8.15418C15.1935 8.7715 15.6357 9.68367 16.4189 9.68367H18.8145V24.269C18.8145 26.3053 20.4638 27.9546 22.5 27.9546C24.5362 27.9546 26.1855 26.3053 26.1855 24.269V9.67445H28.5811C29.3643 9.67445 29.8065 8.76229 29.3182 8.14497L23.2371 0.433052Z" fill="#1E7BB9"/>
</svg>
